# xmcd CD database file
#
# Track frame offsets:
#	150
#	44419
#	71969
#	108094
#	129564
#	142486
#	175323
#	191343
#	234000
#	245739
#	284564
#	299291
#
# Disc length: 4300 seconds
#
# Revision: 0
# Processed by: cddbd v1.5.2PL0 Copyright (c) Steve Scherf et al.
# Submitted via: CDex 1.77
#
DISCID=bf10ca0c
DTITLE=Weather Report - 8:30
DYEAR=1979
DGENRE=Jazz
TTITLE0=Black Market
TTITLE1=Scarlet Woman
TTITLE2=Teen Town
TTITLE3=A Remark you made
TTITLE4=Slang
TTITLE5=A Silent Way
TTITLE6=Birdland
TTITLE7=Thanks for the Memory
TTITLE8=Medley: Badia Boogie Woogie Waltz
TTITLE9=8:30
TTITLE10=Brown Street
TTITLE11=Sightseeing
EXTD=YEAR: 1979
EXTT0=
EXTT1=
EXTT2=
EXTT3=
EXTT4=
EXTT5=
EXTT6=
EXTT7=
EXTT8=
EXTT9=
EXTT10=
EXTT11=
PLAYORDER=
